#!OML:ASF H:\LiuWeirdWalks\Patient Classification 1\Patient 1\Session 1\male.ASF
:FULLY-SPECIFIED
:DEGREES
280
root 1.40554 16.6567 -26.1658 14.3546 8.70352 -0.910815
lowerback 10.7911 1.18401 -2.98539
upperback 0.506175 1.26642 1.00492
thorax -5.61613 0.713137 2.54119
lowerneck -15.9205 -0.736218 6.4663
upperneck 13.3679 -1.83849 -3.9278
head 6.58646 -0.896459 -2.50828
rclavicle -1.51822e-014 -1.87852e-014
rhumerus -27.9319 -1.8527 -80.9116
rradius 37.4545
rwrist -11.8222
rhand -14.8573 -4.04654
rfingers 7.12502
rthumb 11.3024 -33.722
lclavicle -1.51822e-014 -1.87852e-014
lhumerus -30.9577 -7.29148 88.7739
lradius 53.0194
lwrist 16.3991
lhand -15.3119 -3.39652
lfingers 7.12502
lthumb 10.8639 26.3025
rfemur -25.5192 -11.6017 14.7992
rtibia 77.5363
rfoot 10.2815 -10.5993
rtoes 0.571354
lfemur -30.9194 -7.88887 -24.0421
ltibia 55.2534
lfoot -24.6159 23.0853
ltoes -11.2383
281
root 1.40842 16.6202 -26.119 14.464 8.60363 -0.835081
lowerback 10.8468 1.1438 -2.96553
upperback 0.704975 1.21866 1.06332
thorax -5.4355 0.684547 2.59939
lowerneck -16.6944 -0.675592 6.10247
upperneck 13.3872 -1.74728 -3.76632
head 6.73361 -0.861814 -2.39745
rclavicle 2.82771e-014 1.98785e-015
rhumerus -27.1393 -1.41818 -80.9549
rradius 37.3693
rwrist -11.8771
rhand -14.8442 -4.03051
rfingers 7.12502
rthumb 11.315 -33.7053
lclavicle 2.82771e-014 1.98785e-015
lhumerus -30.1321 -6.82852 88.6259
lradius 53.7739
lwrist 16.41
lhand -15.4936 -3.60988
lfingers 7.12502
lthumb 10.6887 26.0982
rfemur -25.6452 -11.5735 14.7029
rtibia 77.8496
rfoot 10.4307 -10.563
rtoes 0.71555
lfemur -31.2534 -7.90966 -24.1128
ltibia 56.064
lfoot -24.6314 23.1067
ltoes -11.9397
282
root 1.41139 16.5845 -26.0708 14.5547 8.50036 -0.766949
lowerback 10.9041 1.1197 -2.92232
upperback 0.846033 1.19314 1.09659
thorax -5.31711 0.667694 2.61405
lowerneck -17.246 -0.680063 5.72851
upperneck 13.3494 -1.73012 -3.56363
head 6.82078 -0.858523 -2.27488
rclavicle 2.4699e-014 -3.18055e-015
rhumerus -26.4943 -1.05115 -80.9978
rradius 37.3031
rwrist -11.9171
rhand -14.8323 -3.97796
rfingers 7.12502
rthumb 11.3264 -33.6521
lclavicle 2.4699e-014 -3.18055e-015
lhumerus -29.4106 -6.43691 88.4655
lradius 54.5516
lwrist 16.4023
lhand -15.6995 -3.82155
lfingers 7.12502
lthumb 10.49 25.8967
rfemur -25.7707 -11.5606 14.607
rtibia 78.2007
rfoot 10.6122 -10.5603
rtoes 0.827075
lfemur -31.6017 -7.91291 -24.1786
ltibia 56.9349
lfoot -24.5697 23.0935
ltoes -12.7153
283
root 1.41435 16.5496 -26.0213 14.6234 8.39596 -0.711456
lowerback 10.9684 1.1083 -2.85542
upperback 0.932565 1.18569 1.11032
thorax -5.26033 0.660641 2.59156
lowerneck -17.5857 -0.749258 5.3308
upperneck 13.2608 -1.78715 -3.31344
head 6.85263 -0.886681 -2.13731
rclavicle 8.19987e-015 2.41523e-014
rhumerus -25.9896 -0.738638 -81.0429
rradius 37.2587
rwrist -11.9363
rhand -14.8261 -3.89265
rfingers 7.12502
rthumb 11.3325 -33.5665
lclavicle 8.19987e-015 2.41523e-014
lhumerus -28.7835 -6.10944 88.2897
lradius 55.3507
lwrist 16.3861
lhand -15.9254 -4.03925
lfingers 7.12502
lthumb 10.2722 25.6899
rfemur -25.8934 -11.5613 14.5186
rtibia 78.5852
rfoot 10.8025 -10.6016
rtoes 0.91359
lfemur -31.9698 -7.89188 -24.2345
ltibia 57.8775
lfoot -24.4227 23.0329
ltoes -13.5612
284
root 1.41705 16.5155 -25.9707 14.6691 8.29469 -0.67371
lowerback 11.0437 1.10394 -2.76619
upperback 0.979803 1.18923 1.11394
thorax -5.25118 0.65964 2.54377
lowerneck -17.7737 -0.868819 4.90577
upperneck 13.1433 -1.90251 -3.0191
head 6.8481 -0.93932 -1.98505
rclavicle 1.50579e-014 -1.78906e-014
rhumerus -25.5871 -0.460265 -81.0889
rradius 37.2385
rwrist -11.9397
rhand -14.8268 -3.79035
rfingers 7.12502
rthumb 11.3318 -33.4642
lclavicle 1.50579e-014 -1.78906e-014
lhumerus -28.2116 -5.82428 88.0958
lradius 56.1654
lwrist 16.3665
lhand -16.1609 -4.26328
lfingers 7.12502
lthumb 10.0449 25.477
rfemur -26.0149 -11.5743 14.4469
rtibia 78.9985
rfoot 10.9812 -10.687
rtoes 0.99341
lfemur -32.3636 -7.84026 -24.273
ltibia 58.8972
lfoot -24.191 22.9099
ltoes -14.4658
285
root 1.41921 16.4823 -25.9192 14.6916 8.19807 -0.657393
lowerback 11.1325 1.10208 -2.65897
upperback 1.00284 1.19789 1.11634
thorax -5.27486 0.661525 2.48343
lowerneck -17.8686 -1.01199 4.47993
upperneck 13.016 -2.04629 -2.70777
head 6.82467 -1.00345 -1.8292
rclavicle -1.84373e-014 -1.74931e-014
rhumerus -25.2513 -0.193683 -81.1336
rradius 37.2494
rwrist -11.939
rhand -14.8361 -3.69826
rfingers 7.12502
rthumb 11.3228 -33.3726
lclavicle -1.84373e-014 -1.74931e-014
lhumerus -27.6562 -5.55786 87.8827
lradius 56.9892
lwrist 16.3465
lhand -16.3913 -4.49006
lfingers 7.12502
lthumb 9.82267 25.2608
rfemur -26.1376 -11.596 14.3984
rtibia 79.4363
rfoot 11.1369 -10.808
rtoes 1.09764
lfemur -32.7849 -7.74969 -24.2874
ltibia 59.9912
lfoot -23.8803 22.7086
ltoes -15.4188
286
root 1.42062 16.4501 -25.8668 14.6902 8.10579 -0.664842
lowerback 11.2315 1.10015 -2.53821
upperback 1.0163 1.20833 1.12379
thorax -5.31425 0.664351 2.42028
lowerneck -17.9199 -1.14448 4.10809
upperneck 12.8977 -2.18144 -2.42531
head 6.79728 -1.06286 -1.69048
rclavicle -2.82771e-014 1.09332e-014
rhumerus -24.9519 0.0796358 -81.175
rradius 37.2988
rwrist -11.9528
rhand -14.8576 -3.64418
rfingers 7.12502
rthumb 11.3021 -33.3197
lclavicle -2.82771e-014 1.09332e-014
lhumerus -27.0828 -5.29154 87.6494
lradius 57.8161
lwrist 16.3255
lhand -16.602 -4.71809
lfingers 7.12502
lthumb 9.61934 25.0423
rfemur -26.2621 -11.622 14.3767
rtibia 79.8941
rfoot 11.268 -10.9493
rtoes 1.25084
lfemur -33.2288 -7.61264 -24.2721
ltibia 61.1483
lfoot -23.5025 22.4156
ltoes -16.4129
287
root 1.42112 16.4187 -25.813 14.6643 8.0143 -0.695309
lowerback 11.3347 1.09835 -2.41035
upperback 1.03097 1.22043 1.13856
thorax -5.35474 0.667879 2.36048
lowerneck -17.9591 -1.24578 3.82297
upperneck 12.7966 -2.28592 -2.19841
head 6.77363 -1.10789 -1.58088
rclavicle 2.37548e-014 1.41137e-014
rhumerus -24.6719 0.370796 -81.2117
rradius 37.3964
rwrist -11.9985
rhand -14.895 -3.64496
rfingers 7.12502
rthumb 11.266 -33.3224
lclavicle 2.37548e-014 1.41137e-014
lhumerus -26.4689 -5.0153 87.395
lradius 58.6441
lwrist 16.3031
lhand -16.786 -4.94034
lfingers 7.12502
lthumb 9.44187 24.8282
rfemur -26.3874 -11.6469 14.3795
rtibia 80.3677
rfoot 11.3815 -11.0965
rtoes 1.4717
lfemur -33.6841 -7.42392 -24.2254
ltibia 62.3494
lfoot -23.0707 22.0244
ltoes -17.4451
288
root 1.42073 16.3882 -25.7573 14.6135 7.91694 -0.745459
lowerback 11.4331 1.09933 -2.28184
upperback 1.0504 1.23697 1.15823
thorax -5.3879 0.673451 2.30477
lowerneck -17.992 -1.30502 3.64968
upperneck 12.7175 -2.34935 -2.04283
head 6.7556 -1.13378 -1.50849
rclavicle -1.64991e-014 5.96354e-016
rhumerus -24.4132 0.681307 -81.244
rradius 37.5484
rwrist -12.0842
rhand -14.9488 -3.69846
rfingers 7.12502
rthumb 11.2141 -33.3787
lclavicle -1.64991e-014 5.96354e-016
lhumerus -25.8115 -4.73062 87.1178
lradius 59.4737
lwrist 16.2779
lhand -16.9447 -5.1527
lfingers 7.12502
lthumb 9.2887 24.6227
rfemur -26.5101 -11.6646 14.3992
rtibia 80.853
rfoot 11.4864 -11.2406
rtoes 1.75716
lfemur -34.134 -7.18037 -24.1493
ltibia 63.5699
lfoot -22.6002 21.5356
ltoes -18.5134
